<svg width="124" height="37" viewBox="0 0 124 37" fill="none" xmlns="http://www.w3.org/2000/svg">
<path fill-rule="evenodd" clip-rule="evenodd" d="M77.7002 11.3101L75.7002 7.93014L72.1502 9.62014L70.1502 6.23014L66.6002 7.93014L64.6102 4.53014L61.0602 6.23014L59.0602 2.84014L55.5102 4.54014L53.5202 1.14014L49.9602 2.84014L42.4302 27.3601L51.5802 30.1601C51.9248 29.055 52.6535 28.1095 53.6344 27.4947C54.6153 26.8798 55.7838 26.6361 56.9287 26.8076C58.0736 26.9791 59.1194 27.5545 59.8771 28.4298C60.6348 29.305 61.0545 30.4225 61.0602 31.5801V31.6801C61.0802 32.1201 61.0302 32.5601 60.9002 33.0001L70.2002 35.8501L77.7002 11.3101Z" fill="#D61920"/>
<path fill-rule="evenodd" clip-rule="evenodd" d="M50.28 25.34C50.0487 25.3017 49.8388 25.1818 49.6884 25.002C49.5379 24.8222 49.4569 24.5944 49.46 24.36V12.36C49.4587 12.2283 49.4837 12.0976 49.5334 11.9757C49.5832 11.8538 49.6568 11.743 49.75 11.6499C49.8431 11.5568 49.9539 11.4832 50.0758 11.4334C50.1977 11.3836 50.3284 11.3586 50.46 11.36H59.1301C59.6409 11.3587 60.147 11.458 60.6194 11.6523C61.0919 11.8465 61.5215 12.132 61.8836 12.4923C62.2458 12.8525 62.5334 13.2806 62.7301 13.7521C62.9268 14.2236 63.0287 14.7291 63.03 15.24V24.36C63.0298 24.5073 62.997 24.6527 62.934 24.7858C62.871 24.9189 62.7794 25.0365 62.6658 25.1301C62.5521 25.2237 62.4191 25.2911 62.2764 25.3274C62.1336 25.3637 61.9846 25.368 61.84 25.34C61.6106 25.2996 61.403 25.1788 61.2546 24.9992C61.1061 24.8196 61.0265 24.593 61.03 24.36V15.25C61.03 14.7461 60.8299 14.2628 60.4736 13.9065C60.1172 13.5502 59.634 13.35 59.1301 13.35H57.2401V24.35C57.2408 24.484 57.2147 24.6167 57.1631 24.7404C57.1116 24.8641 57.0357 24.9762 56.94 25.07C56.8262 25.1829 56.6866 25.2664 56.5333 25.3135C56.38 25.3605 56.2176 25.3696 56.0601 25.34C55.8287 25.3017 55.6188 25.1818 55.4684 25.002C55.3179 24.8222 55.2369 24.5944 55.2401 24.36V13.35H51.46V24.35C51.461 24.4971 51.4294 24.6426 51.3677 24.7761C51.3059 24.9096 51.2155 25.0279 51.1028 25.1224C50.9901 25.217 50.8579 25.2855 50.7157 25.3231C50.5735 25.3607 50.4247 25.3665 50.28 25.34ZM64.7001 30.57C64.467 30.5315 64.2557 30.4101 64.105 30.2282C63.9544 30.0463 63.8745 29.8161 63.8801 29.58C63.8812 29.3176 63.9853 29.0662 64.17 28.88C64.3547 28.6916 64.6063 28.5837 64.87 28.58C65.72 28.58 66.4501 28.04 66.6901 27.23L67.7201 23.8L64.35 12.53C64.3099 12.4039 64.2951 12.2712 64.3066 12.1394C64.318 12.0076 64.3556 11.8794 64.417 11.7622C64.4783 11.645 64.5624 11.5411 64.6642 11.4566C64.766 11.3722 64.8835 11.3087 65.01 11.27C65.2619 11.2002 65.531 11.2297 65.7618 11.3525C65.9925 11.4753 66.1673 11.682 66.25 11.93L68.75 20.33L71.2901 11.93C71.4101 11.47 71.9201 11.16 72.4401 11.26L72.5101 11.27C73.0501 11.44 73.3501 12.01 73.1901 12.54L69.7201 24.1L68.6201 27.8C68.3732 28.5962 67.8837 29.2955 67.2201 29.8C66.545 30.3063 65.7239 30.58 64.8801 30.58C64.8199 30.5823 64.7596 30.5789 64.7001 30.57Z" fill="#FEFEFE"/>
<path fill-rule="evenodd" clip-rule="evenodd" d="M3.5801 23.1504H5.5401C6.06258 23.1504 6.56365 22.9428 6.9331 22.5734C7.30255 22.2039 7.5101 21.7028 7.5101 21.1804V15.4104C7.51142 15.1517 7.46176 14.8952 7.36398 14.6557C7.26619 14.4162 7.12218 14.1983 6.94018 14.0144C6.75817 13.8306 6.54174 13.6844 6.30323 13.5841C6.06472 13.4839 5.8088 13.4317 5.5501 13.4304H3.5801V23.1304V23.1504ZM2.3501 25.2104C2.10999 25.1698 1.89231 25.0447 1.73641 24.8576C1.58052 24.6705 1.4967 24.4338 1.5001 24.1904V6.27036C1.49833 6.13325 1.52396 5.99718 1.57547 5.8701C1.62699 5.74303 1.70336 5.62753 1.8001 5.53036C1.91715 5.40882 2.06226 5.3179 2.22268 5.26559C2.38309 5.21328 2.55391 5.20118 2.7201 5.23036C3.2201 5.33036 3.5801 5.75036 3.5801 6.26036V11.3604H5.5401C6.07148 11.359 6.5979 11.4626 7.08921 11.665C7.58052 11.8675 8.02707 12.1648 8.40328 12.5401C8.77949 12.9154 9.07797 13.3612 9.28162 13.852C9.48527 14.3428 9.5901 14.869 9.5901 15.4004V21.1704C9.58746 22.241 9.16097 23.2671 8.40389 24.0242C7.64682 24.7812 6.62076 25.2077 5.5501 25.2104H2.5401C2.47327 25.2143 2.4062 25.211 2.3401 25.2004L2.3501 25.2104Z" fill="#333545"/>
<path fill-rule="evenodd" clip-rule="evenodd" d="M16.64 13.3499C16.5277 13.3303 16.414 13.3203 16.3 13.3199C16.0406 13.3172 15.7832 13.3664 15.543 13.4644C15.3028 13.5625 15.0845 13.7075 14.9011 13.891C14.7176 14.0744 14.5726 14.2927 14.4745 14.5329C14.3765 14.7731 14.3273 15.0305 14.33 15.2899V21.2999C14.3287 21.559 14.3787 21.8158 14.4773 22.0554C14.5758 22.295 14.7209 22.5127 14.9041 22.6959C15.0873 22.8791 15.305 23.0241 15.5446 23.1227C15.7842 23.2212 16.0409 23.2712 16.3 23.2699C16.8225 23.2699 17.3236 23.0624 17.693 22.6929C18.0625 22.3235 18.27 21.8224 18.27 21.2999V15.2999C18.27 14.3299 17.58 13.5199 16.64 13.3499ZM15.59 25.2999C14.6524 25.135 13.8032 24.6442 13.1921 23.9142C12.5811 23.1842 12.2474 22.2619 12.25 21.3099V15.2999C12.2483 14.768 12.3526 14.2411 12.5569 13.75C12.7613 13.259 13.0615 12.8136 13.44 12.4399C13.8155 12.0645 14.2615 11.767 14.7523 11.5645C15.2431 11.362 15.7691 11.2585 16.3 11.2599C17.3715 11.2599 18.3991 11.6856 19.1567 12.4432C19.9144 13.2009 20.34 14.2284 20.34 15.2999V21.3099C20.34 22.3899 19.92 23.4099 19.15 24.1799C18.7761 24.5546 18.3318 24.8517 17.8427 25.0541C17.3536 25.2566 16.8294 25.3606 16.3 25.3599C16.062 25.3609 15.8245 25.3408 15.59 25.2999ZM27.39 13.3599C27.2778 13.3402 27.164 13.3302 27.05 13.3299C26.7906 13.3272 26.5332 13.3764 26.293 13.4744C26.0528 13.5725 25.8345 13.7175 25.6511 13.901C25.4676 14.0844 25.3226 14.3027 25.2245 14.5429C25.1265 14.7831 25.0773 15.0405 25.08 15.2999V21.3099C25.0787 21.569 25.1287 21.8258 25.2273 22.0654C25.3258 22.305 25.4709 22.5227 25.6541 22.7059C25.8373 22.8891 26.055 23.0341 26.2946 23.1327C26.5342 23.2312 26.7909 23.2812 27.05 23.2799C27.3091 23.2812 27.5659 23.2312 27.8055 23.1327C28.0451 23.0341 28.2628 22.8891 28.446 22.7059C28.6292 22.5227 28.7742 22.305 28.8728 22.0654C28.9713 21.8258 29.0213 21.569 29.02 21.3099V15.2999C29.02 14.3399 28.33 13.5299 27.39 13.3599ZM26.34 25.2999C25.4043 25.1329 24.5574 24.6412 23.9483 23.9114C23.3392 23.1816 23.007 22.2605 23.01 21.3099V15.2999C23.0116 14.7106 23.1418 14.1287 23.3915 13.5948C23.6412 13.061 24.0043 12.5881 24.4557 12.2091C24.907 11.8301 25.4357 11.5542 26.0046 11.4006C26.5736 11.247 27.1693 11.2195 27.75 11.3199C28.6878 11.4825 29.538 11.9708 30.1509 12.699C30.7637 13.4271 31.0999 14.3482 31.1 15.2999V21.3099C31.1012 21.8441 30.9957 22.3732 30.7897 22.866C30.5836 23.3589 30.2811 23.8056 29.9 24.1799C29.5261 24.5546 29.0818 24.8517 28.5927 25.0541C28.1036 25.2566 27.5794 25.3606 27.05 25.3599C26.81 25.3599 26.57 25.3399 26.34 25.2999ZM34.61 25.3399C34.3699 25.2994 34.1522 25.1742 33.9963 24.9872C33.8404 24.8001 33.7566 24.5634 33.76 24.3199V6.26991C33.76 5.98991 33.86 5.71991 34.06 5.52991C34.178 5.41347 34.3223 5.3272 34.4807 5.27846C34.6392 5.22971 34.807 5.21992 34.97 5.24991C35.47 5.32991 35.84 5.75991 35.84 6.26991V16.9499L40.62 11.5899C40.86 11.3299 41.22 11.2099 41.58 11.2699C41.7615 11.3003 41.9316 11.3787 42.0725 11.4971C42.2134 11.6155 42.3201 11.7694 42.3813 11.943C42.4426 12.1165 42.4562 12.3033 42.4208 12.4839C42.3854 12.6645 42.3023 12.8323 42.18 12.9699L38.57 16.9999L42.3 23.8299C42.3672 23.9451 42.4106 24.0726 42.4278 24.2048C42.445 24.337 42.4355 24.4714 42.4 24.5999C42.3614 24.7324 42.2962 24.8556 42.2086 24.9622C42.1209 25.0688 42.0125 25.1564 41.89 25.2199C41.6783 25.3416 41.4302 25.3842 41.19 25.3399C41.0406 25.3147 40.8986 25.2568 40.7742 25.1703C40.6497 25.0839 40.5459 24.9711 40.47 24.8399L37.11 18.6599L35.83 20.0699V24.3199C35.83 24.5957 35.7204 24.8603 35.5254 25.0553C35.3304 25.2503 35.0658 25.3599 34.79 25.3599C34.72 25.3599 34.66 25.3599 34.59 25.3399H34.61ZM80.42 25.3299C79.8577 25.2357 79.3234 25.0172 78.8563 24.6902C78.3892 24.3632 78.001 23.9361 77.72 23.4399C77.5826 23.1968 77.5467 22.9093 77.62 22.6399C77.7 22.3799 77.87 22.1599 78.1 22.0199C78.3136 21.9032 78.561 21.8644 78.8 21.9099C79.1 21.9599 79.37 22.1399 79.52 22.4099C79.79 22.8699 80.22 23.1699 80.75 23.2599C81.0233 23.3074 81.3037 23.2925 81.5704 23.2163C81.8371 23.1401 82.0831 23.0046 82.29 22.8199C82.69 22.4499 82.89 21.9199 82.84 21.3999C82.8289 21.1334 82.7552 20.8732 82.6249 20.6404C82.4947 20.4076 82.3114 20.2088 82.09 20.0599L79.29 18.0699C78.8338 17.7496 78.4539 17.3326 78.1774 16.8486C77.9008 16.3646 77.7344 15.8256 77.69 15.2699C77.6538 14.7093 77.7458 14.1478 77.9589 13.628C78.172 13.1082 78.5007 12.6438 78.92 12.2699C79.3291 11.8896 79.8178 11.6052 80.3506 11.4374C80.8834 11.2697 81.4468 11.2227 82 11.2999C83.18 11.4999 84.14 12.1799 84.69 13.1399C84.8225 13.3798 84.857 13.6617 84.7861 13.9265C84.7153 14.1912 84.5446 14.4183 84.31 14.5599C84.0983 14.6816 83.8502 14.7242 83.61 14.6799C83.4606 14.6547 83.3186 14.5968 83.1942 14.5103C83.0697 14.4239 82.9659 14.3111 82.89 14.1799C82.7646 13.9678 82.5937 13.786 82.3897 13.6477C82.1857 13.5094 81.9536 13.4179 81.71 13.3799C81.4609 13.3348 81.2046 13.3484 80.9616 13.4196C80.7186 13.4907 80.4955 13.6175 80.31 13.7899C80.1289 13.9608 79.9876 14.1694 79.896 14.401C79.8044 14.6325 79.7648 14.8814 79.78 15.1299C79.8 15.6199 80.08 16.0999 80.5 16.3799L83.3 18.3299C83.7753 18.6627 84.1684 19.0997 84.4491 19.6074C84.7299 20.1152 84.8909 20.6804 84.92 21.2599C84.9663 21.8367 84.8775 22.4163 84.6605 22.9528C84.4435 23.4892 84.1043 23.9676 83.67 24.3499C83.2476 24.7424 82.743 25.0358 82.1929 25.2088C81.6428 25.3818 81.0611 25.43 80.49 25.3499L80.41 25.3299H80.42ZM88.45 25.3599C88.2098 25.3177 87.9921 25.1924 87.8349 25.006C87.6777 24.8195 87.591 24.5838 87.59 24.3399V6.28991C87.5887 6.15297 87.6147 6.01713 87.6665 5.89035C87.7183 5.76357 87.7948 5.64839 87.8917 5.55155C87.9885 5.45471 88.1037 5.37815 88.2305 5.32636C88.3572 5.27457 88.4931 5.24858 88.63 5.24991L88.83 5.25991C89.33 5.35991 89.67 5.76991 89.67 6.28991V11.3899H91.64C92.1709 11.3886 92.6969 11.4922 93.1876 11.6948C93.6784 11.8973 94.1243 12.1948 94.4997 12.5703C94.8751 12.9457 95.1726 13.3916 95.3752 13.8823C95.5777 14.3731 95.6813 14.899 95.68 15.4299V24.3299C95.6809 24.4809 95.6485 24.6302 95.5853 24.7673C95.522 24.9045 95.4294 25.026 95.3139 25.1233C95.1985 25.2206 95.063 25.2914 94.9172 25.3305C94.7714 25.3697 94.6187 25.3763 94.47 25.3499C93.97 25.2599 93.61 24.8299 93.61 24.3199V15.4199C93.61 15.1617 93.559 14.906 93.4599 14.6675C93.3608 14.4291 93.2155 14.2126 93.0324 14.0304C92.8494 13.8483 92.6321 13.7041 92.3932 13.6062C92.1542 13.5083 91.8983 13.4586 91.64 13.4599H89.67V24.3299C89.6712 24.4819 89.6386 24.6323 89.5748 24.7702C89.5109 24.9082 89.4173 25.0303 89.3007 25.1278C89.1841 25.2253 89.0473 25.2958 88.9003 25.3342C88.7532 25.3726 88.5994 25.378 88.45 25.3499V25.3599ZM102.73 13.3699C102.447 13.3185 102.155 13.3301 101.877 13.404C101.599 13.4779 101.34 13.6123 101.119 13.7975C100.899 13.9827 100.722 14.2143 100.601 14.4757C100.48 14.7371 100.418 15.0219 100.42 15.3099V21.3199C100.419 21.5781 100.468 21.8341 100.566 22.073C100.664 22.312 100.808 22.5292 100.991 22.7123C101.173 22.8954 101.389 23.0406 101.628 23.1398C101.866 23.2389 102.122 23.2899 102.38 23.2899C102.9 23.2899 103.4 23.0899 103.77 22.7199C103.955 22.5371 104.102 22.319 104.202 22.0786C104.301 21.8381 104.352 21.5802 104.35 21.3199V15.2999C104.35 14.3399 103.67 13.5199 102.72 13.3599L102.73 13.3699ZM101.67 25.2899C100.735 25.125 99.8884 24.6353 99.2792 23.9072C98.67 23.1791 98.3374 22.2593 98.34 21.3099V15.2999C98.3401 14.7097 98.4692 14.1267 98.7183 13.5916C98.9674 13.0565 99.3304 12.5824 99.7819 12.2023C100.233 11.8222 100.763 11.5454 101.332 11.3913C101.902 11.2371 102.498 11.2094 103.08 11.3099C104.019 11.4728 104.871 11.9626 105.484 12.6928C106.097 13.423 106.432 14.3465 106.43 15.2999V21.3099C106.43 21.8425 106.325 22.3698 106.119 22.861C105.912 23.3521 105.61 23.7971 105.23 24.1699C104.771 24.6305 104.208 24.973 103.588 25.1681C102.968 25.3631 102.31 25.4049 101.67 25.2899Z" fill="#333545"/>
<path fill-rule="evenodd" clip-rule="evenodd" d="M122.4 12.5403C122.434 12.4132 122.443 12.2807 122.426 12.1503C122.409 12.0199 122.366 11.8942 122.3 11.7803C122.225 11.6589 122.126 11.5539 122.009 11.4714C121.892 11.389 121.76 11.3308 121.62 11.3003C121.362 11.2515 121.096 11.303 120.874 11.4443C120.653 11.5855 120.494 11.8058 120.43 12.0603C120.43 12.1103 119.31 16.6203 118.43 20.0503L118.41 20.1203L118.39 20.0503L116.39 12.0703C116.352 11.8755 116.254 11.6972 116.111 11.5595C115.968 11.4218 115.786 11.3313 115.59 11.3003C115.531 11.2886 115.471 11.2819 115.41 11.2803C114.95 11.2803 114.55 11.6003 114.42 12.0603C114.41 12.1103 113.29 16.6203 112.42 20.0503L112.4 20.1203L112.38 20.0503C111.53 16.6203 110.38 12.1103 110.38 12.0603C110.333 11.8689 110.231 11.6952 110.088 11.5604C109.944 11.4255 109.764 11.3351 109.57 11.3003C109.404 11.2708 109.232 11.2833 109.072 11.3364C108.911 11.3895 108.767 11.4817 108.651 11.6047C108.535 11.7277 108.451 11.8775 108.407 12.0408C108.364 12.2042 108.361 12.3758 108.4 12.5403L111.41 24.5703C111.467 24.7907 111.595 24.9864 111.774 25.1273C111.952 25.2682 112.172 25.3465 112.4 25.3503C112.89 25.3503 113.28 25.0303 113.38 24.5703L115.38 16.5803L115.41 16.5103L115.43 16.5803C116.31 20.0503 117.43 24.5803 117.43 24.5803C117.49 24.7965 117.617 24.9878 117.794 25.1264C117.97 25.265 118.186 25.3434 118.41 25.3503C118.641 25.3575 118.866 25.2832 119.047 25.1405C119.228 24.9979 119.353 24.796 119.4 24.5703L122.4 12.5403Z" fill="#333545"/>
</svg>
